<?xml version="1.0" encoding="utf-8"?>
<!-- Generator: Adobe Illustrator 25.4.1, SVG Export Plug-In . SVG Version: 6.00 Build 0)  -->
<svg version="1.1" id="Capa_1" xmlns="http://www.w3.org/2000/svg" xmlns:xlink="http://www.w3.org/1999/xlink" x="0px" y="0px"
	 viewBox="0 0 141.7 141.7" style="enable-background:new 0 0 141.7 141.7;" xml:space="preserve">
<style type="text/css">
	.st0{fill:#FFFFFF;}
	.st1{display:none;}
	.st2{display:inline;fill:#FFFFFF;}
</style>
<g>
	<g>
		<rect x="97.4" y="26.6" class="st0" width="8.9" height="35.5"/>
		<path class="st0" d="M8.9,8.9h124v124H8.9C8.9,132.9,8.9,8.9,8.9,8.9z M0,141.7h141.7V0H0V141.7z"/>
		<polygon class="st0" points="46.9,35.4 38,44.3 38,44.3 38,44.3 46.9,53.2 26.6,53.2 26.6,62 62,62 62,55.7 50.6,44.3 62,32.9 
			62,26.6 26.6,26.6 26.6,35.4 		"/>
		<polygon class="st0" points="35.4,115.2 35.4,94.8 55.7,115.1 55.7,115.2 62,115.2 62,79.8 53.2,79.8 53.2,100 32.9,79.8 
			32.9,79.8 26.6,79.8 26.6,115.2 		"/>
		<path class="st0" d="M101.9,92.4l3.8,10.1h-7.8L101.9,92.4z M94.7,110.7H109l1.7,4.5h8.9l-13.9-35.4h-7.7l-13.9,35.4H93
			L94.7,110.7z"/>
	</g>
	<g class="st1">
		<path class="st2" d="M4.1,168.4l5.2-4.4H0.7v-3.6h14v3.4L9.5,168c3,0.1,5.7,2.4,5.7,6c0,3.4-2.8,6.5-7.6,6.5c-4.6,0-7.4-3-7.6-6.3
			l4.1-0.8c0.1,2,1.5,3.5,3.6,3.5c2.1,0,3.4-1.3,3.4-3c0-1.9-1.3-2.9-3.2-2.9c-0.8,0-1.4,0.1-1.8,0.3L4.1,168.4z"/>
		<path class="st2" d="M18.4,180.1v-19.8h3.9v19.8H18.4z"/>
		<path class="st2" d="M39.6,180.1l-9-14v14h-3.9v-19.8h4.8l8.2,13.1v-13.1h3.8v19.8H39.6z"/>
		<path class="st2" d="M60,175.6h-8l-1.7,4.5h-4.1l7.6-19.8h4.5l7.5,19.8h-4.2L60,175.6z M53.2,172.1h5.5l-2.7-7.5L53.2,172.1z"/>
		<path class="st2" d="M70.4,175.2c1.4,0,2.6,1.1,2.6,2.5s-1.1,2.5-2.6,2.5c-1.4,0-2.5-1.1-2.5-2.5S69,175.2,70.4,175.2z"/>
		<path class="st2" d="M74.8,170.2c0-6.3,4.8-10.3,10.1-10.3c5.5,0,8.3,3.4,9.1,6.6l-3.6,1.1c-0.5-1.9-2-4-5.4-4
			c-3,0-6.1,2.1-6.1,6.6c0,4.2,3,6.5,6.1,6.5c3.4,0,5-2.2,5.6-4.1l3.6,1.1c-0.8,3-3.6,6.7-9.2,6.7C79.4,180.5,74.8,176.5,74.8,170.2
			z"/>
		<path class="st2" d="M106.1,159.9c5.4,0,10.2,3.9,10.2,10.3c0,6.4-4.8,10.3-10.2,10.3c-5.4,0-10.2-3.9-10.2-10.3
			C95.9,163.8,100.8,159.9,106.1,159.9z M106.1,176.8c3.1,0,6.2-2.1,6.2-6.6c0-4.5-3.1-6.6-6.2-6.6c-3,0-6.2,2.1-6.2,6.6
			C99.9,174.7,103.1,176.8,106.1,176.8z"/>
		<path class="st2" d="M137.9,180.1v-13.9l-5.7,13.9H129l-5.7-13.8v13.8h-3.7v-19.8h5.1l5.9,14.3l5.8-14.3h5.2v19.8H137.9z"/>
	</g>
</g>
</svg>
